<svg xmlns="http://www.w3.org/2000/svg" viewBox="0 0 24 24" fill="none">
  <path fill-rule="evenodd" clip-rule="evenodd" d="M12 22.5C17.799 22.5 22.5 17.799 22.5 12C22.5 6.20101 17.799 1.5 12 1.5C6.20101 1.5 1.5 6.20101 1.5 12C1.5 17.799 6.20101 22.5 12 22.5ZM13.8155 15.7218C14.2089 15.7231 14.5973 15.6335 14.9504 15.46L14.9808 15.4435V17.549L14.9691 17.5545C14.3704 17.8116 13.7258 17.9451 13.0742 17.9469C11.254 17.9469 10.1439 16.9459 10.0659 15.2618V13.3335L8.71875 13.5436V11.9348L10.0659 11.7246V10.9448L8.71875 11.1549V9.47077L10.1055 9.25444L10.1992 9.22774V5.9907H12.5714V6.68149C12.5714 7.80402 11.7535 8.93208 10.3277 9.2084L10.7866 9.14819L15.2812 8.44702V10.1312L12.4304 10.5759V11.1309H12.4339V11.3552L15.2812 10.911V12.5199L12.4304 12.9646V14.7699C12.4304 14.7846 12.4313 14.7988 12.4322 14.8128C12.433 14.8264 12.4339 14.8399 12.4339 14.8535V14.8998C12.4843 15.5837 12.9658 15.7218 13.8155 15.7218Z" fill="#292929"/>
</svg>
